<?xml version="1.0" encoding="us-ascii" standalone="no"?><svg xmlns="http://www.w3.org/2000/svg" xmlns:xlink="http://www.w3.org/1999/xlink" contentStyleType="text/css" height="669px" preserveAspectRatio="none" style="width:833px;height:669px;background:#FFFFFF;" version="1.1" viewBox="0 0 833 669" width="833px" zoomAndPan="magnify"><defs/><g><rect fill="#DDDDDD" height="657.4316" style="stroke:#181818;stroke-width:0.5;" width="101" x="11" y="6"/><rect fill="#DDDDDD" height="657.4316" style="stroke:#181818;stroke-width:0.5;" width="419" x="287" y="6"/><rect fill="#ADD8E6" height="652.4316" style="stroke:#181818;stroke-width:0.5;" width="128" x="578" y="11"/><text fill="#000000" font-family="sans-serif" font-size="13" font-weight="bold" lengthAdjust="spacing" textLength="100" x="590" y="25.0283">List&lt;Receivers&gt;</text><line style="stroke:#181818;stroke-width:0.5;stroke-dasharray:5.0,5.0;" x1="61.5" x2="61.5" y1="110.9121" y2="578.8105"/><line style="stroke:#181818;stroke-width:0.5;stroke-dasharray:5.0,5.0;" x1="215.5" x2="215.5" y1="110.9121" y2="578.8105"/><line style="stroke:#181818;stroke-width:0.5;stroke-dasharray:5.0,5.0;" x1="340.5" x2="340.5" y1="110.9121" y2="578.8105"/><line style="stroke:#181818;stroke-width:0.5;stroke-dasharray:5.0,5.0;" x1="519" x2="519" y1="181.4941" y2="578.8105"/><line style="stroke:#181818;stroke-width:0.5;stroke-dasharray:5.0,5.0;" x1="642" x2="642" y1="110.9121" y2="578.8105"/><text fill="#000000" font-family="sans-serif" font-size="14" lengthAdjust="spacing" textLength="87" x="15" y="107.3984">JavaFX_client</text><ellipse cx="61.5" cy="40.791" fill="#E2E2F0" rx="8" ry="8" style="stroke:#181818;stroke-width:0.5;"/><path d="M61.5,48.791 L61.5,75.791 M48.5,56.791 L74.5,56.791 M61.5,75.791 L48.5,90.791 M61.5,75.791 L74.5,90.791 " fill="none" style="stroke:#181818;stroke-width:0.5;"/><rect fill="#E2E2F0" height="32.6211" rx="2.5" ry="2.5" style="stroke:#181818;stroke-width:0.5;" width="56" x="187.5" y="77.291"/><text fill="#000000" font-family="sans-serif" font-size="14" lengthAdjust="spacing" textLength="42" x="194.5" y="99.3984">Server</text><rect fill="#E2E2F0" height="32.6211" rx="2.5" ry="2.5" style="stroke:#181818;stroke-width:0.5;" width="99" x="291" y="77.291"/><text fill="#000000" font-family="sans-serif" font-size="14" lengthAdjust="spacing" textLength="85" x="298" y="99.3984">ClientHandler</text><rect fill="#E2E2F0" height="32.6211" rx="2.5" ry="2.5" style="stroke:#181818;stroke-width:0.5;" width="77" x="603.5" y="77.291"/><text fill="#000000" font-family="sans-serif" font-size="14" lengthAdjust="spacing" textLength="63" x="610.5" y="99.3984">Receivers</text><text fill="#000000" font-family="sans-serif" font-size="14" lengthAdjust="spacing" textLength="87" x="15" y="653.918">JavaFX_client</text><ellipse cx="61.5" cy="587.3105" fill="#E2E2F0" rx="8" ry="8" style="stroke:#181818;stroke-width:0.5;"/><path d="M61.5,595.3105 L61.5,622.3105 M48.5,603.3105 L74.5,603.3105 M61.5,622.3105 L48.5,637.3105 M61.5,622.3105 L74.5,637.3105 " fill="none" style="stroke:#181818;stroke-width:0.5;"/><rect fill="#E2E2F0" height="32.6211" rx="2.5" ry="2.5" style="stroke:#181818;stroke-width:0.5;" width="56" x="187.5" y="578.8105"/><text fill="#000000" font-family="sans-serif" font-size="14" lengthAdjust="spacing" textLength="42" x="194.5" y="600.918">Server</text><rect fill="#E2E2F0" height="32.6211" rx="2.5" ry="2.5" style="stroke:#181818;stroke-width:0.5;" width="99" x="291" y="578.8105"/><text fill="#000000" font-family="sans-serif" font-size="14" lengthAdjust="spacing" textLength="85" x="298" y="600.918">ClientHandler</text><text fill="#000000" font-family="sans-serif" font-size="14" lengthAdjust="spacing" textLength="61" x="485.5" y="625.918">read data</text><text fill="#000000" font-family="sans-serif" font-size="14" lengthAdjust="spacing" textLength="75" x="478.5" y="644.5391">from Socket</text><ellipse cx="519" cy="594.8105" fill="#E2E2F0" rx="12" ry="12" style="stroke:#181818;stroke-width:0.5;"/><polygon fill="#181818" points="515,582.8105,521,577.8105,519,582.8105,521,587.8105,515,582.8105" style="stroke:#181818;stroke-width:1.0;"/><rect fill="#E2E2F0" height="32.6211" rx="2.5" ry="2.5" style="stroke:#181818;stroke-width:0.5;" width="77" x="603.5" y="578.8105"/><text fill="#000000" font-family="sans-serif" font-size="14" lengthAdjust="spacing" textLength="63" x="610.5" y="600.918">Receivers</text><polygon fill="#181818" points="203.5,138.2031,213.5,142.2031,203.5,146.2031,207.5,142.2031" style="stroke:#181818;stroke-width:1.0;"/><line style="stroke:#181818;stroke-width:1.0;" x1="61.5" x2="209.5" y1="142.2031" y2="142.2031"/><text fill="#000000" font-family="sans-serif" font-size="13" font-weight="bold" lengthAdjust="spacing" textLength="7" x="68.5" y="136.9404">1</text><text fill="#000000" font-family="sans-serif" font-size="13" lengthAdjust="spacing" textLength="119" x="79.5" y="136.9404">incoming connection</text><polygon fill="#181818" points="328.5,169.4941,338.5,173.4941,328.5,177.4941,332.5,173.4941" style="stroke:#181818;stroke-width:1.0;"/><line style="stroke:#181818;stroke-width:1.0;" x1="215.5" x2="334.5" y1="173.4941" y2="173.4941"/><text fill="#000000" font-family="sans-serif" font-size="13" font-weight="bold" lengthAdjust="spacing" textLength="7" x="222.5" y="168.2314">2</text><text fill="#000000" font-family="sans-serif" font-size="13" lengthAdjust="spacing" textLength="90" x="233.5" y="168.2314">socket.accept()</text><text fill="#000000" font-family="sans-serif" font-size="14" lengthAdjust="spacing" textLength="61" x="485.5" y="228.6016">read data</text><text fill="#000000" font-family="sans-serif" font-size="14" lengthAdjust="spacing" textLength="75" x="478.5" y="247.2227">from Socket</text><ellipse cx="519" cy="197.4941" fill="#E2E2F0" rx="12" ry="12" style="stroke:#181818;stroke-width:0.5;"/><polygon fill="#181818" points="515,185.4941,521,180.4941,519,185.4941,521,190.4941,515,185.4941" style="stroke:#181818;stroke-width:1.0;"/><polygon fill="#181818" points="466.5,200.7852,476.5,204.7852,466.5,208.7852,470.5,204.7852" style="stroke:#181818;stroke-width:1.0;"/><line style="stroke:#181818;stroke-width:1.0;" x1="340.5" x2="472.5" y1="204.7852" y2="204.7852"/><text fill="#000000" font-family="sans-serif" font-size="13" font-weight="bold" lengthAdjust="spacing" textLength="7" x="347.5" y="199.5225">3</text><text fill="#000000" font-family="sans-serif" font-size="13" lengthAdjust="spacing" textLength="103" x="358.5" y="199.5225">create new thread</text><polygon fill="#181818" points="507,270.0273,517,274.0273,507,278.0273,511,274.0273" style="stroke:#181818;stroke-width:1.0;"/><line style="stroke:#181818;stroke-width:1.0;" x1="61.5" x2="513" y1="274.0273" y2="274.0273"/><text fill="#000000" font-family="sans-serif" font-size="13" font-weight="bold" lengthAdjust="spacing" textLength="7" x="68.5" y="268.7646">4</text><text fill="#000000" font-family="sans-serif" font-size="13" lengthAdjust="spacing" textLength="109" x="79.5" y="268.7646">incoming message</text><polygon fill="#181818" points="630,301.3184,640,305.3184,630,309.3184,634,305.3184" style="stroke:#181818;stroke-width:1.0;"/><line style="stroke:#181818;stroke-width:1.0;" x1="519" x2="636" y1="305.3184" y2="305.3184"/><text fill="#000000" font-family="sans-serif" font-size="13" font-weight="bold" lengthAdjust="spacing" textLength="7" x="526" y="300.0557">5</text><text fill="#000000" font-family="sans-serif" font-size="13" lengthAdjust="spacing" textLength="88" x="537" y="300.0557">notifyReceiver()</text><path d="M647,287.0273 L647,469.0273 L826,469.0273 L826,297.0273 L816,287.0273 L647,287.0273 " fill="#FEFFDD" style="stroke:#181818;stroke-width:0.5;"/><path d="M816,287.0273 L816,297.0273 L826,297.0273 L816,287.0273 " fill="#FEFFDD" style="stroke:#181818;stroke-width:0.5;"/><text fill="#000000" font-family="sans-serif" font-size="13" lengthAdjust="spacing" textLength="158" x="653" y="306.0557">&#1054;&#1087;&#1086;&#1074;&#1077;&#1097;&#1077;&#1085;&#1080;&#1077; &#1089;&#1083;&#1091;&#1096;&#1072;&#1090;&#1077;&#1083;&#1077;&#1081;:</text><text fill="#000000" font-family="sans-serif" font-size="13" lengthAdjust="spacing" textLength="129" x="657" y="323.3467">AuthMessageReceiver</text><text fill="#000000" font-family="sans-serif" font-size="13" lengthAdjust="spacing" textLength="152" x="657" y="340.6377">ChangeUsernameReceiver</text><text fill="#000000" font-family="sans-serif" font-size="13" lengthAdjust="spacing" textLength="141" x="657" y="357.9287">PrivateMessageReceiver</text><text fill="#000000" font-family="sans-serif" font-size="13" lengthAdjust="spacing" textLength="135" x="657" y="375.2197">ClientMessageReceiver</text><text fill="#000000" font-family="sans-serif" font-size="13" lengthAdjust="spacing" textLength="105" x="657" y="392.5107">ExitClientReceiver</text><text fill="#000000" font-family="sans-serif" font-size="13" lengthAdjust="spacing" textLength="112" x="657" y="409.8018">StopServerReceiver</text><text fill="#000000" font-family="sans-serif" font-size="13" lengthAdjust="spacing" textLength="138" x="657" y="427.0928">HistoryRequestReceiver</text><text fill="#000000" font-family="sans-serif" font-size="13" lengthAdjust="spacing" textLength="118" x="657" y="444.3838">HistorySaveReceiver</text><text fill="#000000" font-family="sans-serif" font-size="13" lengthAdjust="spacing" textLength="131" x="657" y="461.6748">RequestUsersReceiver</text><polygon fill="#181818" points="351.5,494.2285,341.5,498.2285,351.5,502.2285,347.5,498.2285" style="stroke:#181818;stroke-width:1.0;"/><line style="stroke:#181818;stroke-width:1.0;" x1="345.5" x2="641" y1="498.2285" y2="498.2285"/><text fill="#000000" font-family="sans-serif" font-size="13" font-weight="bold" lengthAdjust="spacing" textLength="7" x="357.5" y="492.9658">6</text><text fill="#000000" font-family="sans-serif" font-size="13" lengthAdjust="spacing" textLength="53" x="368.5" y="492.9658">response</text><polygon fill="#181818" points="226.5,525.5195,216.5,529.5195,226.5,533.5195,222.5,529.5195" style="stroke:#181818;stroke-width:1.0;"/><line style="stroke:#181818;stroke-width:1.0;" x1="220.5" x2="339.5" y1="529.5195" y2="529.5195"/><text fill="#000000" font-family="sans-serif" font-size="13" font-weight="bold" lengthAdjust="spacing" textLength="7" x="232.5" y="524.2568">7</text><text fill="#000000" font-family="sans-serif" font-size="13" lengthAdjust="spacing" textLength="53" x="243.5" y="524.2568">response</text><polygon fill="#181818" points="72.5,556.8105,62.5,560.8105,72.5,564.8105,68.5,560.8105" style="stroke:#181818;stroke-width:1.0;"/><line style="stroke:#181818;stroke-width:1.0;" x1="66.5" x2="214.5" y1="560.8105" y2="560.8105"/><text fill="#000000" font-family="sans-serif" font-size="13" font-weight="bold" lengthAdjust="spacing" textLength="7" x="78.5" y="555.5479">8</text><text fill="#000000" font-family="sans-serif" font-size="13" lengthAdjust="spacing" textLength="53" x="89.5" y="555.5479">message</text><!--SRC=[TLB1YjH04BttLvJhOVIGdNkGW2xA8Yk8W-1XGMewjKbZqXsxA-FgJRteJ_WD8WoiBEelTFx8xcGICZCQQ4A_zwhgTLNTQImMDGAJ-G1iMnABahbnwNBPLAYvhQjJQUgbexSjQKb9hh2mM0k1BHlTrckoOcsk1Kes5eRlAMxmoQlNibAaMP3E8Ihsq2HRaTsGJPKEwPKkG1gjIR8okiytq4bsrilFKUTLK8CpyWtnAKf93T-xBnQXhjeW4-m9nMBlEbK3rwwTj6fDCNO08SdWiCfC9It5zC4UMrF1IRZca2FZfRwofePLx-W4q06NaPnvub8S-1WaAUooQdetHXsqPnHE_Qd9EImeDWSkbEC7BqYI2lvT1dSlL57oeogCRuXBiebDGHjML-z783mf00GsXgJWl_a__hV_uRVTLx_rl_oDtqBtqTzsdxil_dltAO2tuVnCBpKyRBbyDlWOqmNqh4HTq4j7LcCz9vxRlWt_YEWVUOm_lbOyS3DmnQOP9ZK3pqC7Z0sF2clf-9XOuMQUUAUB7jq8YxYPSTLslwbZHqjdoJL6EnB_MQg97vTsRvRfDBg_]--></g></svg>